<svg width="270" height="142" viewBox="0 0 270 142" fill="none" xmlns="http://www.w3.org/2000/svg">
<path d="M148 20H155C158.3 20 161.6 20 165 20C165 25.28 165 30.56 165 36C163.35 36 161.7 36 160 36C160.349 36.6033 160.699 37.2065 161.059 37.8281C161.514 38.6273 161.969 39.4265 162.438 40.25C162.89 41.0389 163.342 41.8278 163.809 42.6406C167.478 49.9081 167.108 60.1521 165.316 67.9922C161.128 79.1502 153.382 87.0957 142.813 92.3125C135.938 95.1535 129.595 95.6889 122.193 95.6867C115.002 95.7236 108.863 96.955 102.938 101.187C100.419 104.843 100.259 107.755 101 112C101.95 115.413 103.328 118.198 105.625 120.937C109.459 122.652 112.89 122.821 117 122C122.969 119.081 125.482 113.731 128.055 107.879C129.131 104.6 129.601 101.423 130 98C132.688 97.9183 135.374 97.8592 138.063 97.8125C139.191 97.7748 139.191 97.7748 140.342 97.7363C146.652 97.6544 151.517 98.771 156.363 103.121C157.328 104.268 157.328 104.268 158.313 105.437C158.969 106.199 159.625 106.961 160.301 107.746C164.699 113.58 164.728 118.834 164 126C162.06 132.992 157.14 137.628 150.969 141.164C149 142 149 142 146 142C145.518 140.438 145.039 138.876 144.563 137.312C144.296 136.442 144.029 135.572 143.754 134.676C143.037 132.13 142.483 129.6 142 127C142.66 126.649 143.32 126.299 144 125.937C146.411 124.034 146.411 124.034 146.25 120.312C146.168 119.219 146.085 118.126 146 117C144.68 116.34 143.36 115.68 142 115C141.472 115.961 141.472 115.961 140.934 116.941C136.074 125.456 130.919 131.705 122 136C113.991 138.002 105.238 138.258 98 134C91.4916 129.555 88.4591 124.377 86 117C84.8455 99.9852 84.8455 99.9852 90 93C90.6188 92.0925 91.2375 91.185 91.875 90.25C94.3302 87.6504 96.9603 85.8653 100 84C99.3327 80.1087 97.4144 77.2536 95.4375 73.875C90.8058 65.1213 89.9139 55.5705 92.5567 45.9799C96.2501 35.5091 103.591 27.6728 113.313 22.5C118.422 20.4217 122.678 19.8752 128.176 19.9023C129.333 19.9055 130.49 19.9088 131.682 19.9121C132.88 19.9205 134.078 19.9288 135.313 19.9375C137.139 19.9442 137.139 19.9442 139.002 19.9511C142.001 19.9629 145.001 19.9793 148 20Z" fill="#050505"/>
<path d="M57 0H65.6679C63.5481 4.74681 61.9083 9.81394 60.6123 15.3838C59.6929 19.3124 58.7014 23.2224 57.7175 27.1353C57.2158 29.1387 56.7194 31.1435 56.2297 33.1499C54.962 38.3224 53.598 43.449 52.1094 48.5625C49.6039 57.232 47.466 65.9877 45.3125 74.75C44.5196 77.9746 43.7236 81.1985 42.9258 84.4219C42.7466 85.1551 42.5675 85.8883 42.3829 86.6437C41.1127 91.7745 41.1127 91.7745 40 94C34.72 94 29.44 94 24 94C20.6717 82.6232 17.7542 71.1781 14.9272 59.668C12.7617 50.8651 10.5008 42.1185 7.96875 33.4121C6.25977 27.3928 4.75833 21.3221 3.25 15.25C2.93418 13.9945 2.61836 12.7389 2.29297 11.4453C1.84631 9.6548 1.84631 9.6548 1.39062 7.82812C1.12282 6.75466 0.85502 5.68119 0.579102 4.5752C0 2 0 2 0 0C5.28 0 10.56 0 16 0C19.5311 13.9706 22.8005 28.002 26.0737 42.0347C26.632 44.4277 27.1936 46.8199 27.7583 49.2114C28.3462 51.7018 28.9252 54.1941 29.5 56.6875C29.7991 57.9701 30.0981 59.2527 30.4062 60.5742C31.0202 64.1165 31.1105 67.4122 31 71C31.66 71 32.32 71 33 71C33.0806 70.2007 33.1611 69.4014 33.2441 68.5779C34.7011 56.0256 37.6178 43.852 40.5 31.5625C41.0045 29.3862 41.5084 27.2098 42.0117 25.0332C43.9495 16.6736 45.8956 8.31942 48 0C50.97 0 53.94 0 57 0Z" fill="#050505"/>
<path d="M174 20C179.61 20 185.22 20 191 20C191.014 22.1794 191.014 22.1794 191.028 24.4028C191.068 29.804 191.134 35.2046 191.207 40.6055C191.235 42.941 191.257 45.2766 191.271 47.6123C191.292 50.9738 191.339 54.3342 191.39 57.6953C191.392 58.7362 191.393 59.777 191.394 60.8494C191.515 66.8421 191.969 70.4495 196 75C199.974 76.9872 204.69 76.6778 209 76C211.946 73.9228 213.396 71.2064 215 68C215.118 66.4586 215.177 64.9124 215.205 63.3667C215.225 62.4059 215.245 61.445 215.265 60.455C215.29 58.8956 215.29 58.8956 215.316 57.3047C215.337 56.2421 215.358 55.1795 215.379 54.0847C215.445 50.6816 215.503 47.2783 215.562 43.875C215.605 41.5716 215.649 39.2682 215.693 36.9648C215.8 31.31 215.901 25.655 216 20C221.28 20 226.56 20 232 20C232.149 27.0434 232.257 34.0858 232.329 41.1304C232.359 43.5221 232.4 45.9138 232.452 48.3052C233.03 75.4751 233.03 75.4751 223.926 85.2192C219.128 89.8102 213.691 93.2396 207 94C206.302 94.0877 205.605 94.1753 204.886 94.2656C196.54 94.8513 189.415 91.7088 183.047 86.3594C179.172 82.1714 177.085 77.2502 175 72C174.67 71.34 174.34 70.68 174 70C173.909 68.3965 173.882 66.7892 173.886 65.1831C173.886 64.1822 173.886 63.1813 173.886 62.1501C173.892 61.0667 173.897 59.9834 173.902 58.8672C173.903 57.7602 173.905 56.6532 173.906 55.5127C173.912 51.9668 173.924 48.4209 173.937 44.875C173.942 42.4753 173.947 40.0755 173.951 37.6758C173.962 31.7838 173.979 25.8919 174 20Z" fill="#080808"/>
<path d="M140 38.9997C144.643 42.2586 148.228 45.475 150 50.9997C150.873 58.1019 150.375 64.1713 146 69.9997C142.391 73.7599 138.268 77.582 132.922 78.2653C125.655 78.213 119.698 77.9641 114.188 72.8122C108.982 67.0246 107.354 61.4101 107.586 53.7145C108.461 47.9803 111.73 43.944 115.938 40.1247C123.763 34.6951 131.737 34.4927 140 38.9997Z" fill="#FAFAFA"/>
<path d="M270 20C270 25.61 270 31.22 270 37C266.04 37.495 266.04 37.495 262 38C258.669 40.6707 257.337 42.2224 256.546 46.3956C256.324 49.3039 256.282 52.1693 256.293 55.0859C256.27 56.6713 256.27 56.6713 256.247 58.2887C256.204 61.651 256.196 65.0124 256.188 68.375C256.164 70.6601 256.139 72.9453 256.111 75.2304C256.049 80.8203 256.016 86.4097 256 92C250.72 92 245.44 92 240 92C239.876 84.9199 239.785 77.8406 239.725 70.7597C239.7 68.3543 239.666 65.949 239.623 63.5439C239.562 60.0733 239.534 56.6038 239.512 53.1328C239.486 52.0688 239.46 51.0049 239.434 49.9087C239.43 41.371 241.678 34.9379 247.211 28.3789C254.808 22.0027 259.944 19.5358 270 20Z" fill="#070707"/>
<path d="M67 20C72.28 20 77.56 20 83 20C83 44.09 83 68.18 83 93C77.72 93 72.44 93 67 93C67 68.91 67 44.82 67 20Z" fill="#050505"/>
</svg>
