<svg width="270" height="243" viewBox="0 0 270 243" fill="none" xmlns="http://www.w3.org/2000/svg">
<path d="M41.6055 57.8516C47.1237 51.1946 50.3627 45.3729 52.9766 37.0586C56.5137 26.2717 56.5137 26.2717 61.3828 25.6172C64 25.9375 64 25.9375 65.5547 27.6328C65.9904 28.4346 66.4261 29.2364 66.875 30.0625C67.3752 30.9648 67.8753 31.8672 68.3906 32.7969C69.5451 35.0498 70.6812 37.3062 71.7969 39.5781C72.2534 40.506 72.2534 40.506 72.7192 41.4526C73.5898 43.2403 74.4399 45.038 75.2891 46.8359C78.5202 52.6932 82.4959 54.8532 88.4375 57.5625C101.407 63.7832 111.676 73.0669 122 82.9375C122.877 83.7728 123.753 84.6081 124.656 85.4688C130.594 91.2601 135.94 97.3674 141 103.938C141.397 104.453 141.794 104.968 142.203 105.499C152.686 119.25 161.742 134.655 167.188 151.125C167.511 152.088 167.835 153.051 168.168 154.043C169.646 159.184 170.122 163.974 170.062 169.312C170.053 170.372 170.044 171.432 170.035 172.523C170.018 173.718 170.018 173.718 170 174.938C174.772 174.718 178.621 174.094 182.352 170.965C184.684 168.365 186.86 165.697 189 162.938C198.002 151.582 208.968 138.044 224 134.938C236.235 133.814 245.588 135.565 255.195 143.32C261.415 148.894 267.975 156.756 269.375 165.199C269.375 167.125 269.375 167.125 269 169.938C265.306 169.364 262.638 168.352 259.438 166.438C252.924 162.554 246.52 161.967 239 162.938C235.536 164.415 232.875 166.53 230 168.938C228.759 169.935 228.759 169.935 227.492 170.953C225.659 172.439 223.835 173.935 222.02 175.441C195.42 197.43 195.42 197.43 184.156 197.355C176.436 196.333 169.861 191.84 164 186.938C163.794 187.515 163.588 188.092 163.375 188.688C160.049 194.13 153.776 195.966 148.074 198.105C146.045 198.762 146.045 198.762 145 199.938C144.593 205.324 145.619 209.379 147.75 214.25C148.022 214.905 148.293 215.56 148.573 216.235C149.762 219.097 150.996 221.929 152.289 224.746C155.096 231.058 155.354 236.026 155 242.938H148C148.503 239.69 148.503 239.69 148 235.938C146.027 233.579 144.329 231.862 142 229.938C141.405 229.418 140.81 228.898 140.197 228.362C138.48 226.868 136.744 225.4 135 223.938C121.918 212.773 121.918 212.773 119 206.938C118.805 201.333 119.24 195.984 120 190.438C120.095 189.71 120.191 188.983 120.289 188.234C120.521 186.468 120.76 184.703 121 182.938C120.163 183.18 119.327 183.422 118.465 183.672C117.301 184.007 116.137 184.342 114.938 184.688C114.311 184.872 113.685 185.056 113.04 185.245C109.737 186.205 106.451 187.079 103.082 187.777C93.7521 189.841 88.4198 192.901 82 199.938C81.3168 200.628 80.6336 201.319 79.9297 202.031C73.6041 208.679 69.0316 215.405 65.6679 222.938H57C57.66 221.617 58.32 220.298 59 218.938C59.5981 217.762 60.1963 216.586 60.8125 215.375C62.9567 210.596 64.1268 205.69 65.375 200.625C70.4346 180.751 81.4078 170.07 97.2617 158.02C99.7822 156.2 99.7822 156.2 101 154.938C101.229 152.941 101.395 150.938 101.535 148.934C101.622 147.719 101.709 146.504 101.799 145.252C101.886 143.973 101.973 142.693 102.062 141.375C102.153 140.092 102.244 138.808 102.338 137.486C102.563 134.304 102.783 131.121 103 127.938C102.007 128.226 101.015 128.515 99.9922 128.812C78.7071 134.753 78.7071 134.753 70.0703 130.492C67.1819 128.471 64.6049 126.312 62 123.938C61.0732 123.109 60.1463 122.28 59.1914 121.426C55.6571 118.225 52.1405 115.006 48.6602 111.746C44.6131 108.225 42.0287 106.531 36.5625 106.562C35.7388 106.637 34.9151 106.712 34.0664 106.789C32 106.938 32 106.938 30 105.938C30.3444 103.44 30.847 102.116 32.5 100.188C37.3373 97.7689 41.831 98.3548 46.8789 99.7109C54.5841 102.43 61.3351 106.29 68.1758 110.722C72.2198 113.326 72.2198 113.326 76.8945 113.855C79.507 112.716 80.424 111.264 82 108.938C82.66 108.938 83.32 108.938 84 108.938C85.2812 102.692 86.4477 96.0396 83.375 90.1875C79.6086 84.4784 74.4589 81.0175 68 78.9375C59.2501 77.2483 51.9468 81.6126 44.8555 86.3789C43.2346 87.5619 41.6171 88.7494 40 89.9375C37.25 91.3125 37.25 91.3125 35 91.9375C34.01 91.6075 33.02 91.2775 32 90.9375C32.671 90.3013 32.671 90.3013 33.3555 89.6523C37.4495 85.6805 40.8139 81.6684 44 76.9375C39.3453 80.8164 35.0136 84.8515 30.7969 89.2031C29 90.9375 29 90.9375 26 92.9375C19.434 92.3715 19.434 92.3715 18 90.9375C18.2329 84.9702 19.8418 82.3688 24 78.1875C25.0114 77.1416 26.0205 76.0933 27.0273 75.043C27.5312 74.5227 28.0351 74.0024 28.5542 73.4663C32.2946 69.5112 35.6088 65.1897 39 60.9375C39.8672 59.9077 40.7357 58.8791 41.6055 57.8516Z" fill="#050505"/>
<path d="M133.875 0C151.244 5.21085 163.163 29.945 171.82 44.5469C173 46.9375 173 46.9375 173 49.9375C167.969 48.4599 165.16 45.4833 161.625 41.8125C161.047 41.2243 160.469 40.6361 159.874 40.03C156.936 37.0194 154.093 33.9623 151.375 30.75C143.782 21.7923 143.782 21.7923 134 15.9375C136.163 19.8905 138.647 22.8075 141.859 25.957C142.561 26.6504 142.561 26.6504 143.276 27.3578C144.763 28.8268 146.256 30.2888 147.75 31.75C153.552 37.4424 159.263 43.1326 164.547 49.3176C166.389 51.3714 168.391 53.0123 170.625 54.625C177.759 60.0246 177.759 60.0246 180 62.9375C180.062 66.0625 180.062 66.0625 179 68.9375C176.867 71.0706 174.917 71.9719 172.125 73.125C167.873 75.5913 165.746 78.9487 163 82.9375C162 83.9375 162 83.9375 158.937 84.375C149.279 83.3018 141.863 73.2694 135.832 66.2656C131.674 61.4922 127.236 57.026 122.75 52.5625C121.948 51.7568 121.146 50.9512 120.32 50.1211C119.549 49.3515 118.779 48.582 117.984 47.7891C117.291 47.0964 116.597 46.4036 115.882 45.6899C113.917 43.7657 113.917 43.7657 111 41.9375C111 41.2775 111 40.6175 111 39.9375C109.721 39.6694 108.442 39.4013 107.125 39.125C103.503 38.3656 103.199 38.2367 101 34.9375C100.665 31.9234 100.439 29.8376 101 26.9375C103.779 23.653 105.586 23.0189 109.812 22.1875C110.864 22.105 111.916 22.0225 113 21.9375C113.17 21.3948 113.34 20.8521 113.516 20.293C116.009 12.9332 116.009 12.9332 120 10.9375C120.808 10.8447 121.616 10.7519 122.449 10.6562C125.149 10.1697 125.149 10.1697 126.59 7.87109C127.035 7.04738 127.479 6.22367 127.937 5.375C130.652 1.05094 130.652 1.05094 133.875 0Z" fill="#C49D72"/>
<path d="M99 39.9376C106.815 43.7071 112.652 50.1849 118.219 56.6563C121.96 60.9405 125.87 65.026 129.875 69.0626C130.531 69.7394 131.187 70.4161 131.863 71.1134C136.003 75.2857 140.248 78.663 145.219 81.8043C147 82.9376 147 82.9376 148 83.9376C148.372 87.2899 148.482 89.2255 146.562 92.0626C142.982 94.6823 139.102 96.2898 135 97.9376C134.238 97.1036 133.476 96.2696 132.691 95.4103C129.479 91.9027 126.245 88.4156 123 84.9376C121.84 83.6924 121.84 83.6924 120.656 82.422C108.55 69.8642 93.7321 60.3242 78 52.9376C78 52.6076 78 52.2776 78 51.9376C82.455 51.4426 82.455 51.4426 87 50.9376C87.4125 49.6795 87.825 48.4213 88.25 47.1251C90.3951 41.4618 92.8231 39.4168 99 39.9376Z" fill="#C39D72"/>
<path d="M59 77.9375C66.5518 77.3285 71.7165 78.6105 78 82.9375C82.0085 86.6769 85.7009 90.2857 86.168 95.9883C86.2088 100.721 85.8261 104.486 84 108.938C83.34 108.938 82.68 108.938 82 108.938C81.5669 109.866 81.5669 109.866 81.125 110.813C80 112.938 80 112.938 78 114.938C72.3539 114.777 68.4346 112.042 63.8125 109.125C57.4246 105.215 51.2374 102.032 44 99.9375C44.99 99.6075 45.98 99.2775 47 98.9375C46.9175 98.195 46.835 97.4525 46.75 96.6875C47 93.9375 47 93.9375 48.75 91.75C53.0993 88.2464 56.5128 87.6603 61.9766 87.3789C64.3957 87.0967 64.3957 87.0967 66 83.9375C64.68 83.6075 63.36 83.2775 62 82.9375C61.8762 82.2982 61.7525 81.6588 61.625 81C61.4188 80.3194 61.2125 79.6388 61 78.9375C60.34 78.6075 59.68 78.2775 59 77.9375Z" fill="#C09A6F"/>
<path d="M31 105.937C36.4318 104.86 40.4385 104.921 45.168 108C48.0018 110.334 50.6796 112.837 53.3384 115.367C56.0087 117.89 58.7732 120.297 61.5625 122.687C62.3574 123.374 62.3574 123.374 63.1685 124.075C67.6953 127.893 72.4553 130.7 77.7344 133.402C80 134.937 80 134.937 80.8281 137.129C80.8848 137.725 80.9416 138.322 81 138.937C78 140.937 78 140.937 75 140.937C75 141.597 75 142.257 75 142.937C69.3393 143.39 66.3199 142.416 62 138.937C59.2404 136.422 56.6162 133.788 54 131.125C53.3142 130.438 52.6284 129.752 51.9219 129.045C48.7306 125.826 45.6733 122.588 42.8047 119.078C40.5039 116.344 38.5228 114.787 35.125 113.5C34.3438 113.192 33.5627 112.884 32.7578 112.566C32.1777 112.359 31.5977 112.151 31 111.937C31 109.957 31 107.977 31 105.937Z" fill="#C19A6F"/>
<path d="M33.8672 116.477C38.9936 117.584 42.1224 122.118 45.1875 126.062C50.4147 132.586 56.0014 139.272 63 143.938C62.6875 146.312 62.6875 146.312 62 148.938C59 150.938 59 150.938 55.6562 150.879C51.2422 149.742 49.5924 148.181 46.5 144.875C46.0286 144.38 45.5572 143.885 45.0715 143.375C41.789 139.898 38.6642 136.287 35.5547 132.656C32.2437 128.996 28.5863 125.878 24 123.938C24.3125 121.562 24.3125 121.562 25 118.938C28.1922 116.809 30.1042 116.639 33.8672 116.477Z" fill="#C29D71"/>
<path d="M101 34.9375C101.536 35.3913 102.072 35.845 102.625 36.3125C104.962 38.089 104.962 38.089 107.938 38.8125C110.96 39.9228 112.231 41.0156 114.409 43.2832C116.372 45.3242 118.385 47.3102 120.398 49.3008C122.057 50.9505 123.716 52.6002 125.375 54.25C126.2 55.0666 127.025 55.8832 127.875 56.7246C132.261 61.0931 136.482 65.5297 140.517 70.2249C142.328 72.3163 144.227 74.2978 146.188 76.25C146.82 76.8855 147.453 77.521 148.105 78.1758C149.98 79.9192 151.924 81.4417 154 82.9375C152.68 82.9375 151.36 82.9375 150 82.9375C149.67 85.5775 149.34 88.2175 149 90.9375C148.01 90.4425 148.01 90.4425 147 89.9375C147.137 88.555 147.137 88.555 147.277 87.1445C147.351 83.8927 147.351 83.8927 145.191 82.1992C144.324 81.6797 143.456 81.1602 142.562 80.625C136.832 76.7827 132.1 72.3369 127.25 67.4375C126.542 66.7255 125.833 66.0136 125.104 65.28C121.717 61.8357 118.439 58.3351 115.281 54.6797C112.76 51.7619 110.166 49.0962 107.25 46.5625C106.513 45.9154 105.775 45.2683 105.016 44.6016C102.899 42.7966 102.899 42.7966 100 40.9375C101.32 40.9375 102.64 40.9375 104 40.9375C104 40.2775 104 39.6175 104 38.9375C102.68 38.2775 101.36 37.6175 100 36.9375C100.33 36.2775 100.66 35.6175 101 34.9375Z" fill="#FBF5EE"/>
<path d="M59 77.9375C66.5518 77.3285 71.7165 78.6105 78 82.9375C82.048 86.7137 85.6452 90.2944 86.2031 96.0235C86.3024 100.874 86.0903 103.946 83 107.938C78.4015 104.184 74.4579 100.346 70.6758 95.7696C67.3339 92.1161 64.6403 90.5865 59.75 89.75C58.858 89.5915 57.9659 89.4329 57.0469 89.2696C56.0337 89.1052 56.0337 89.1052 55 88.9375C55 88.6075 55 88.2775 55 87.9375C55.6265 87.9001 56.253 87.8628 56.8984 87.8243C57.7157 87.7585 58.533 87.6928 59.375 87.625C60.1871 87.567 60.9992 87.509 61.8359 87.4493C64.3792 87.1076 64.3792 87.1076 66 83.9375C64.68 83.6075 63.36 83.2775 62 82.9375C61.8762 82.2982 61.7525 81.6588 61.625 81C61.4188 80.3194 61.2125 79.6388 61 78.9375C60.34 78.6075 59.68 78.2775 59 77.9375Z" fill="#F9F5EC"/>
<path d="M22.6875 128.375C30.393 129.683 35.092 138.47 39.5361 144.405C41.1896 146.613 42.7815 148.729 44.7812 150.637C46 151.938 46 151.938 46.25 155C46 157.938 46 157.938 45 159.938C42.2891 160.227 42.2891 160.227 39 159.938C36.5859 157.961 36.5859 157.961 34.375 155.312C33.2129 153.94 33.2129 153.94 32.0273 152.539C30 149.938 30 149.938 27.9375 146.688C25.9942 143.929 24.5106 142.836 21.75 141C19.6484 139.52 19.6484 139.52 18 137.938C17.375 134.188 17.375 134.188 18 130.938C20 128.938 20 128.938 22.6875 128.375Z" fill="#C49F76"/>
<path d="M33.0001 33.9375C38.0291 34.2884 40.988 35.9721 45.0001 38.9375C45.7838 39.515 46.5676 40.0925 47.3751 40.6875C47.9113 41.1 48.4476 41.5125 49.0001 41.9375C48.0799 46.4563 45.7862 49.4424 43.1251 53.125C42.6778 53.7663 42.2304 54.4076 41.7696 55.0684C38.3724 59.8134 38.3724 59.8134 35.0001 60.9375C32.8415 52.2518 31.1818 43.9227 32.0001 34.9375C32.3301 34.6075 32.6601 34.2775 33.0001 33.9375Z" fill="#080808"/>
<path d="M119 25.9375C122.471 26.5269 124.213 27.7356 126.75 30.1406C127.786 31.1171 127.786 31.1171 128.844 32.1133C129.555 32.7978 130.267 33.4823 131 34.1875C131.712 34.8565 132.423 35.5255 133.156 36.2148C136.736 39.6139 139.969 43.0304 143 46.9375C144.45 48.1296 145.901 49.3205 147.367 50.4922C149.912 52.7449 152.004 55.3625 154.195 57.9531C155.955 59.8879 157.778 61.4873 159.812 63.125C162.634 65.4342 164.043 67.324 165 70.9375C160.168 70.4823 157.963 68.4795 154.5 65.1875C153.987 64.7031 153.475 64.2186 152.947 63.7195C151.285 62.1385 149.64 60.5408 148 58.9375C147.436 58.3885 146.872 57.8395 146.291 57.2739C140.537 51.6542 134.886 46.0016 129.699 39.8477C126.89 36.6894 123.796 33.817 120.723 30.918C119 28.9375 119 28.9375 119 25.9375Z" fill="#FCF5EC"/>
<path d="M17 142.938C19.2851 145.223 21.0849 147.364 23 149.938C23.7129 150.853 24.4257 151.768 25.1602 152.711C31 160.395 31 160.395 31 164.938C28 166.938 28 166.938 25.6875 167C20.5526 164.97 17.773 160.143 14.875 155.625C13.0273 152.977 11.9888 152.005 9 150.938C9.25561 148.595 9.59271 146.259 10 143.938C12.7324 142.572 13.9563 142.384 17 142.938Z" fill="#C5A076"/>
<path d="M134 15.9375C138.515 16.8026 141.072 19.4118 144.312 22.5C144.894 23.0458 145.476 23.5915 146.075 24.1538C149.686 27.5784 153.054 31.1154 156.254 34.9297C161.335 40.7724 166.883 46.1922 173 50.9375C172.01 52.2575 171.02 53.5775 170 54.9375C164.522 50.5064 159.725 45.5733 155.014 40.3533C149.924 34.7548 144.539 29.468 139.08 24.2307C138.419 23.5848 137.759 22.9389 137.078 22.2734C136.484 21.7016 135.89 21.1297 135.278 20.5405C134 18.9375 134 18.9375 134 15.9375Z" fill="#FCF6ED"/>
<path d="M59 77.9375C66.5518 77.3285 71.7165 78.6105 78 82.9375C82.0615 86.7263 85.8464 90.3797 86.0977 96.1993C86.0861 96.9998 86.0745 97.8003 86.0625 98.625C86.0535 99.4333 86.0445 100.242 86.0352 101.074C86.0236 101.689 86.012 102.304 86 102.938C85.465 102.24 84.9301 101.543 84.3789 100.824C81.7278 97.6072 78.8932 94.684 75.9375 91.75C75.4083 91.217 74.8792 90.684 74.334 90.1348C70.1166 85.928 66.6763 83.7035 61 81.9375C61 80.9475 61 79.9575 61 78.9375C60.34 78.6075 59.68 78.2775 59 77.9375Z" fill="#B3916F"/>
<path d="M92 53.9375C98.9845 54.94 105.653 61.9571 109.875 67.3125C111.803 70.0235 111.803 70.0235 114.438 71.3125C117.025 72.953 117.964 74.1035 119.688 76.5625C122.851 81.051 126.719 84.3628 130.926 87.8594C133.037 89.9747 133.652 91.0211 134 93.9375C130.914 92.5704 128.886 91.034 126.566 88.5938C125.923 87.9288 125.281 87.2639 124.618 86.5789C123.94 85.8722 123.261 85.1656 122.562 84.4375C115.155 76.8611 107.469 70.2538 98.6406 64.3633C98.0992 63.8928 97.5578 63.4223 97 62.9375C97 61.9475 97 60.9575 97 59.9375C96.3606 59.69 95.7212 59.4425 95.0625 59.1875C93 57.9375 93 57.9375 92.25 55.8125C92.1675 55.1938 92.085 54.575 92 53.9375Z" fill="#E9E5DD"/>
<path d="M32 112.938C38.4153 113.098 41.7131 116.609 46 120.938C47.703 122.819 49.3528 124.735 50.9922 126.672C55.1006 131.308 59.5858 135.595 64 139.938C63.34 141.258 62.68 142.577 62 143.938C55.3859 138.622 49.7563 132.49 44.0508 126.242C43.0346 125.14 42.0177 124.038 41 122.938C40.1234 121.987 39.2469 121.037 38.3438 120.059C35.322 117.324 32.9963 117.173 29 116.938C29.495 116.463 29.99 115.989 30.5 115.5C32.1154 114.178 32.1154 114.178 32 112.938Z" fill="#FAF2E7"/>
<path d="M8 156.938C11.8192 160.029 14.5576 163.686 17 167.938C17 169.258 17 170.578 17 171.938C13.875 172.438 13.875 172.438 10 171.938C8.17184 170.054 6.84192 168.11 5.45703 165.883C3.83281 163.714 2.48233 162.948 0 161.938C0 160.618 0 159.298 0 157.938C2.88862 156.493 4.79648 156.561 8 156.938Z" fill="#C39F75"/>
<path d="M23 121.938C31.5136 126.46 37.8273 133.698 44 140.938C42.35 142.258 40.7 143.577 39 144.938C38.2291 144.022 37.4583 143.107 36.6641 142.164C35.6511 140.964 34.6381 139.763 33.625 138.562C33.1171 137.959 32.6092 137.356 32.0859 136.734C31.5961 136.154 31.1062 135.574 30.6016 134.977C30.1512 134.442 29.7008 133.908 29.2368 133.358C26.5656 130.29 24.9995 129.569 21 128.938C21.66 128.607 22.32 128.278 23 127.938C23 125.957 23 123.977 23 121.938Z" fill="#FCF6ED"/>
<path d="M113 70.9375C116.214 72.2985 117.716 73.6016 119.625 76.5C122.817 81.0055 126.695 84.3431 130.926 87.8594C133.037 89.9747 133.652 91.0211 134 93.9375C130.792 92.5265 128.666 90.8396 126.215 88.3477C125.519 87.6458 124.824 86.9439 124.107 86.2207C123.391 85.4879 122.675 84.755 121.938 84C121.218 83.271 120.498 82.5421 119.756 81.791C118.417 80.4346 117.08 79.0762 115.746 77.7151C114.173 76.1134 112.59 74.5222 111 72.9375C111.66 72.9375 112.32 72.9375 113 72.9375C113 72.2775 113 71.6175 113 70.9375Z" fill="#E9E1D8"/>
<path d="M80 85.9375C85.8961 91.5312 85.8961 91.5312 86.0977 96.1992C86.0861 96.9997 86.0745 97.8002 86.0625 98.625C86.0535 99.4332 86.0445 100.241 86.0352 101.074C86.0236 101.689 86.012 102.304 86 102.938C85.4019 102.174 84.8037 101.411 84.1875 100.625C82.2179 98.0282 82.2179 98.0282 80.3438 96.5625C79 94.9375 79 94.9375 78.9258 92.6758C79.0534 91.8753 79.181 91.0748 79.3125 90.25C79.4324 89.4418 79.5523 88.6335 79.6758 87.8008C79.7828 87.1859 79.8898 86.571 80 85.9375Z" fill="#B7956A"/>
<path d="M43 75.9375C43.66 76.2675 44.32 76.5975 45 76.9375C43.7531 78.5233 42.5024 80.106 41.25 81.6875C40.5539 82.5692 39.8578 83.4509 39.1406 84.3594C37.2005 86.696 35.1849 88.8314 33 90.9375C33.33 91.5975 33.66 92.2575 34 92.9375C31.69 92.6075 29.38 92.2775 27 91.9375C32.3333 86.6042 37.6667 81.2708 43 75.9375Z" fill="#CCCCCC"/>
<path d="M134 15.9375C137.908 16.5022 139.899 18.3588 142.75 21C143.549 21.7335 144.348 22.467 145.172 23.2227C145.775 23.7886 146.378 24.3545 147 24.9375C146.01 25.2675 145.02 25.5975 144 25.9375C143.67 26.5975 143.34 27.2575 143 27.9375C141.491 26.5094 139.993 25.0697 138.5 23.625C137.665 22.8245 136.829 22.024 135.969 21.1992C134 18.9375 134 18.9375 134 15.9375Z" fill="#FAF0E7"/>
<path d="M144 74.9375C145.293 75.8938 146.584 76.8526 147.875 77.8125C148.594 78.3462 149.314 78.8798 150.055 79.4297C152 80.9375 152 80.9375 154 82.9375C152.68 82.9375 151.36 82.9375 150 82.9375C149.67 85.5775 149.34 88.2175 149 90.9375C148.34 90.6075 147.68 90.2775 147 89.9375C147.186 88.5762 147.186 88.5762 147.375 87.1875C147.251 86.115 147.127 85.0425 147 83.9375C144.115 81.5133 144.115 81.5133 141 79.9375C141.66 79.6075 142.32 79.2775 143 78.9375C143.652 76.9129 143.652 76.9129 144 74.9375Z" fill="#FBF3E5"/>
<path d="M51 57.9375C51.5981 58.7419 52.1963 59.5462 52.8125 60.375C54.8095 63.1608 54.8095 63.1608 58 63.9375C57.67 64.9275 57.34 65.9175 57 66.9375C54.36 66.9375 51.72 66.9375 49 66.9375C48.3125 64.6875 48.3125 64.6875 48 61.9375C49.4375 59.625 49.4375 59.625 51 57.9375Z" fill="#D5D5D5"/>
<path d="M78 51.9375C81.63 51.9375 85.26 51.9375 89 51.9375C89 52.9275 89 53.9175 89 54.9375C89.66 54.9375 90.32 54.9375 91 54.9375C91.66 56.5875 92.32 58.2375 93 59.9375C89.4576 58.5716 86.0737 57.0282 82.6875 55.3125C81.8045 54.8665 80.9215 54.4205 80.0117 53.9609C79.3479 53.6232 78.684 53.2855 78 52.9375C78 52.6075 78 52.2775 78 51.9375Z" fill="#B39371"/>
<path d="M49 42.9375C49.66 43.5975 50.32 44.2575 51 44.9375C47.7224 51.2195 43.5136 56.4927 39 61.9375C38.01 61.6075 37.02 61.2775 36 60.9375C36.6871 60.0571 37.3741 59.1766 38.082 58.2695C38.9923 57.0965 39.9025 55.9233 40.8125 54.75C41.2643 54.1719 41.7161 53.5937 42.1816 52.998C44.6918 49.755 46.9724 46.5144 49 42.9375Z" fill="#D4D4D4"/>
<path d="M70 84.9375C73.3 85.2675 76.6 85.5975 80 85.9375C79.67 88.5775 79.34 91.2175 79 93.9375C77.8711 93.0048 76.747 92.0661 75.625 91.125C74.9985 90.6029 74.372 90.0809 73.7266 89.543C72 87.9375 72 87.9375 70 84.9375Z" fill="#C4A278"/>
<path d="M157 61.9375C161.283 64.4516 163.645 66.0606 165 70.9375C160.686 70.4582 158.834 69.1917 156 65.9375C156.66 65.9375 157.32 65.9375 158 65.9375C157.67 64.6175 157.34 63.2975 157 61.9375Z" fill="#FAEFDF"/>
<path d="M169 41.9375C171.899 44.3326 172.502 46.25 173 49.9375C169.086 48.6681 167.209 47.4258 165 43.9375C166.32 43.2775 167.64 42.6175 169 41.9375Z" fill="#C7A787"/>
<path d="M23 121.938C26.058 123.673 28.6338 125.322 31 127.938C30.01 127.938 29.02 127.938 28 127.938C27.34 128.598 26.68 129.257 26 129.938C23.375 129.562 23.375 129.562 21 128.938C21.66 128.607 22.32 128.278 23 127.938C23 125.957 23 123.977 23 121.938Z" fill="#F7EEE4"/>
<path d="M44 98.9375C45.4162 98.883 46.8331 98.8445 48.25 98.8125C49.0389 98.7893 49.8278 98.7661 50.6406 98.7422C53.2697 98.9598 54.8105 99.4746 57 100.938C57.33 101.928 57.66 102.918 58 103.938C52.9474 103.306 48.7041 101.803 44 99.9375C44 99.6075 44 99.2775 44 98.9375Z" fill="#D7C7BB"/>
<path d="M58 52.9375C59.6661 52.8948 61.3338 52.8969 63 52.9375C64 53.9375 64 53.9375 64.0625 56.5C64.0419 57.3044 64.0213 58.1088 64 58.9375C62.02 58.9375 60.04 58.9375 58 58.9375C58.66 57.2875 59.32 55.6375 60 53.9375C59.34 53.6075 58.68 53.2775 58 52.9375Z" fill="#C7C7C7"/>
<path d="M111 22.9374C108.637 25.4633 107.335 26.8256 104 27.9374C102.333 29.4373 102.333 29.4373 101 30.9374C101.326 27.9194 101.611 26.3405 103.75 24.1249C106.372 22.7414 108.077 22.6938 111 22.9374Z" fill="#C5A787"/>
<path d="M62 79.9375C63.98 79.9375 65.96 79.9375 68 79.9375C68.66 81.5875 69.32 83.2375 70 84.9375C67.36 84.2775 64.72 83.6175 62 82.9375C62 81.9475 62 80.9575 62 79.9375Z" fill="#C5A07A"/>
<path d="M92 53.9375C94.8858 54.3355 95.8219 54.7276 97.75 57C98.1625 57.6394 98.575 58.2788 99 58.9375C97.68 59.2675 96.36 59.5975 95 59.9375C92 56.1875 92 56.1875 92 53.9375Z" fill="#FAF1E4"/>
<path d="M60 136.938C61.32 138.258 62.64 139.577 64 140.938C63.01 142.423 63.01 142.423 62 143.938C60.68 142.617 59.36 141.298 58 139.938C58.66 138.947 59.32 137.957 60 136.938Z" fill="#F7EFE0"/>
<path d="M106 66.9375C109.243 67.4966 110.931 68.3507 113 70.9375C113 71.5975 113 72.2575 113 72.9375C111.188 72.75 111.188 72.75 109 71.9375C107.25 69.375 107.25 69.375 106 66.9375Z" fill="#F5F3F0"/>
<path d="M97 55.9375C98.98 55.9375 100.96 55.9375 103 55.9375C103.33 56.9275 103.66 57.9175 104 58.9375C104.66 58.9375 105.32 58.9375 106 58.9375C105.67 59.9275 105.34 60.9175 105 61.9375C98.125 58.1875 98.125 58.1875 97 55.9375Z" fill="#CCA987"/>
<path d="M84 93.9375C84.66 93.9375 85.32 93.9375 86 93.9375C86 96.9075 86 99.8775 86 102.938C82.125 98.1875 82.125 98.1875 81 95.9375C81.66 95.9375 82.32 95.9375 83 95.9375C83.33 95.2775 83.66 94.6175 84 93.9375Z" fill="#9E856A"/>
<path d="M8 156.938C7.36063 157.206 6.72125 157.474 6.0625 157.75C3.66868 158.825 3.66868 158.825 3 161.938C2.01 161.938 1.02 161.938 0 161.938C0 160.618 0 159.298 0 157.938C2.70879 156.583 5.00933 156.873 8 156.938Z" fill="#C1A888"/>
<path d="M63 138.938C64.65 138.938 66.3 138.938 68 138.938C68.33 139.928 68.66 140.918 69 141.938C70.98 141.938 72.96 141.938 75 141.938C75 142.268 75 142.597 75 142.938C70.0114 143.231 67.0377 142.996 63 139.938C63 139.607 63 139.278 63 138.938Z" fill="#C9AE90"/>
<path d="M26 117.938C27 120.938 27 120.938 26 123.938C27.32 124.268 28.64 124.597 30 124.938C29.01 125.433 29.01 125.433 28 125.938C25.875 125 25.875 125 24 123.938C24.875 119.062 24.875 119.062 26 117.938Z" fill="#CAAC92"/>
<path d="M119 47.9375C122.837 48.8968 123.597 49.1736 126 51.9375C125.67 52.9275 125.34 53.9175 125 54.9375C123.02 52.6275 121.04 50.3175 119 47.9375Z" fill="#C5A484"/>
<path d="M140 43.9375C141.65 45.5875 143.3 47.2375 145 48.9375C143.35 49.5975 141.7 50.2575 140 50.9375C139.34 49.9475 138.68 48.9575 138 47.9375C138.66 47.2775 139.32 46.6175 140 45.9375C140 45.2775 140 44.6175 140 43.9375Z" fill="#F8F0E0"/>
<path d="M155 39.9375C159.875 44.6875 159.875 44.6875 161 46.9375C160.01 46.9375 159.02 46.9375 158 46.9375C158 46.2775 158 45.6175 158 44.9375C157.01 44.6075 156.02 44.2775 155 43.9375C155 42.6175 155 41.2975 155 39.9375Z" fill="#C8AE8C"/>
<path d="M76 110.938C77.32 111.598 78.64 112.257 80 112.938C79.34 113.598 78.68 114.257 78 114.938C74.875 114.562 74.875 114.562 72 113.938C73.32 113.607 74.64 113.278 76 112.938C76 112.277 76 111.618 76 110.938Z" fill="#B7946C"/>
<path d="M42 105.938C40.9375 107.5 40.9375 107.5 39 108.938C35.3125 108.625 35.3125 108.625 32 107.938C32 107.608 32 107.278 32 106.938C35.4056 106.159 38.5077 105.838 42 105.938Z" fill="#A58966"/>
<path d="M178 60.9375C178.66 61.5975 179.32 62.2575 180 62.9375C179.625 66.0625 179.625 66.0625 179 68.9375C178.01 68.9375 177.02 68.9375 176 68.9375C176 68.2775 176 67.6175 176 66.9375C176.66 66.9375 177.32 66.9375 178 66.9375C178 64.9575 178 62.9775 178 60.9375Z" fill="#C9A88A"/>
</svg>
